<?xml version="1.0" encoding="UTF-8" standalone="no"?>
<!-- Created with Inkscape (http://www.inkscape.org/) -->

<svg
   width="28.216883mm"
   height="29.898621mm"
   viewBox="0 0 28.216883 29.898621"
   version="1.1"
   id="svg1"
   xml:space="preserve"
   inkscape:export-filename="bitmap.svg"
   inkscape:export-xdpi="96"
   inkscape:export-ydpi="96"
   xmlns:inkscape="http://www.inkscape.org/namespaces/inkscape"
   xmlns:sodipodi="http://sodipodi.sourceforge.net/DTD/sodipodi-0.dtd"
   xmlns="http://www.w3.org/2000/svg"
   xmlns:svg="http://www.w3.org/2000/svg"><sodipodi:namedview
     id="namedview1"
     pagecolor="#505050"
     bordercolor="#eeeeee"
     borderopacity="1"
     inkscape:showpageshadow="0"
     inkscape:pageopacity="0"
     inkscape:pagecheckerboard="0"
     inkscape:deskcolor="#d1d1d1"
     inkscape:document-units="mm" /><defs
     id="defs1" /><g
     inkscape:label="Camada 1"
     inkscape:groupmode="layer"
     id="layer1"
     transform="translate(-90.314898,-132.43411)"><path
       id="path1"
       style="fill:#ffffff;stroke:none;stroke-width:0.264583"
       d="m 102.82887,132.43533 c -4.66113,0.0697 -7.568728,3.08514 -9.890874,7.08432 -0.922269,2.55812 -2.20334,4.56636 -1.401981,9.76736 0.346679,-0.55771 0.723711,-0.96486 1.13068,-1.22111 0.27498,2.42548 -0.647156,4.64817 -2.351794,6.51174 2.451527,0.50196 4.034889,-0.6811 4.928898,-2.21588 -0.762209,-1.31786 -1.175639,-5.24516 -1.175639,-5.24516 0.845669,3.6052 3.497986,7.96202 5.697843,9.22476 -0.314419,-0.97412 -4.151717,-6.50872 0.452167,-13.06845 -0.233609,-2.12853 -0.0789,-4.20174 0.9493,-6.15001 -1.182942,7.84584 3.46181,11.80964 4.5222,12.70671 -0.21618,-2.70832 0.14233,-5.09085 1.17564,-7.00887 1.35591,1.21734 2.76015,2.58725 3.84369,4.43125 -0.0908,5.91552 -0.76929,6.61844 -1.85415,8.99894 3.24911,-1.93626 4.50838,-5.32461 5.56194,-8.86303 -0.0945,1.46527 0.19387,2.38805 -1.26607,5.78776 1.56889,2.13085 3.45573,1.92992 5.38106,1.44694 -1.18484,-1.2003 -2.78746,-1.10997 -2.84892,-6.91844 0.5305,0.33589 1.06096,0.79861 1.58285,1.65055 0.37452,-2.57617 0.13082,-5.57334 -1.17564,-8.74986 -2.26083,-5.27744 -6.24052,-7.88082 -11.7569,-8.09408 -0.52101,-0.058 -1.02212,-0.0827 -1.5043,-0.0754 z m -2.14819,12.22096 c -0.62477,0.87161 -1.197433,1.82188 -1.582853,3.05252 -0.115608,1.57073 -0.249218,3.13662 0.339514,4.88343 1.705529,1.7345 3.290749,2.45163 4.815729,2.39675 1.87845,-0.0676 3.5242,-1.00263 4.97385,-2.44171 0.29666,-1.6616 0.38834,-3.28244 0.38448,-4.88394 -0.65805,-1.14835 -1.42934,-2.06971 -2.32854,-2.73575 -0.87979,1.65869 -0.67673,3.9264 -0.63304,6.10453 -2.34629,-0.28793 -4.7303,-2.78021 -5.96914,-6.37583 z m -5.572273,9.06198 c -0.74751,0.93862 -1.53727,1.8492 -2.464449,2.66805 0.488649,0.70334 1.220998,0.91839 1.944067,1.1529 -0.03049,-1.35521 0.259762,-2.58219 0.520382,-3.82095 z m 17.748273,0.1359 c -0.9793,1.5424 -2.14841,2.81365 -3.54966,3.75326 -0.41236,1.74308 -1.09815,3.21268 -1.74098,4.7253 1.3479,-0.6345 2.64319,-1.4424 3.59513,-2.46445 0.31378,0.49998 0.29102,0.73091 0.65578,1.56011 1.11314,-1.51199 1.61193,-3.83524 1.03973,-7.57422 z m -16.798977,0.29404 c -1.216509,5.59601 3.899155,7.68201 5.245677,8.11682 -0.83462,-1.571 -1.584946,-3.19244 -2.238626,-4.88394 -1.357218,-0.90344 -2.099312,-1.97295 -3.007051,-3.23288 z"
       inkscape:export-filename="path1.svg"
       inkscape:export-xdpi="96"
       inkscape:export-ydpi="96" /></g></svg>
