<svg width="24" height="23" viewBox="0 0 24 23" fill="none" xmlns="http://www.w3.org/2000/svg">
  <path d="M7.99421 18.2683C7.99421 18.3602 7.88848 18.4338 7.75517 18.4338C7.60347 18.4476 7.49774 18.374 7.49774 18.2683C7.49774 18.1764 7.60347 18.1028 7.73678 18.1028C7.87469 18.089 7.99421 18.1626 7.99421 18.2683ZM6.56455 18.0614C6.53238 18.1534 6.62431 18.2591 6.76222 18.2867C6.88174 18.3327 7.01965 18.2867 7.04723 18.1948C7.07482 18.1028 6.98747 17.9971 6.84957 17.9557C6.73004 17.9235 6.59673 17.9695 6.56455 18.0614ZM8.59641 17.9833C8.4631 18.0155 8.37116 18.1028 8.38495 18.2085C8.39874 18.3005 8.51826 18.3602 8.65617 18.3281C8.78948 18.2959 8.88142 18.2085 8.86763 18.1166C8.85384 18.0293 8.72972 17.9695 8.59641 17.9833ZM11.6212 0.367767C5.24523 0.367767 0.367859 5.20836 0.367859 11.5843C0.367859 16.6824 3.57653 21.0449 8.1597 22.5803C8.74811 22.686 8.95497 22.3228 8.95497 22.024C8.95497 21.739 8.94118 20.1669 8.94118 19.2015C8.94118 19.2015 5.72331 19.891 5.04756 17.8316C5.04756 17.8316 4.52351 16.4939 3.76961 16.1491C3.76961 16.1491 2.7169 15.4274 3.84316 15.4412C3.84316 15.4412 4.9878 15.5331 5.61758 16.6272C6.62431 18.4016 8.3114 17.8914 8.96876 17.588C9.07449 16.8524 9.37329 16.3422 9.70428 16.0388C7.13458 15.7538 4.54189 15.3814 4.54189 10.9592C4.54189 9.69499 4.89126 9.06061 5.62678 8.25154C5.50725 7.95274 5.11651 6.72076 5.7463 5.13021C6.70706 4.83141 8.91819 6.37139 8.91819 6.37139C9.83759 6.11396 10.8259 5.98065 11.8051 5.98065C12.7842 5.98065 13.7726 6.11396 14.692 6.37139C14.692 6.37139 16.9031 4.82681 17.8639 5.13021C18.4937 6.72536 18.1029 7.95274 17.9834 8.25154C18.7189 9.06521 19.1694 9.69958 19.1694 10.9592C19.1694 15.3952 16.4618 15.7492 13.8921 16.0388C14.315 16.4019 14.6736 17.0915 14.6736 18.1718C14.6736 19.7209 14.6598 21.6379 14.6598 22.0148C14.6598 22.3136 14.8713 22.6768 15.4551 22.5711C20.052 21.0449 23.1688 16.6824 23.1688 11.5843C23.1688 5.20836 17.9972 0.367767 11.6212 0.367767ZM4.8361 16.2227C4.77634 16.2686 4.79013 16.3744 4.86828 16.4617C4.94183 16.5353 5.04756 16.5674 5.10732 16.5077C5.16708 16.4617 5.15329 16.356 5.07514 16.2686C5.00159 16.1951 4.89586 16.1629 4.8361 16.2227ZM4.33963 15.8503C4.30745 15.9101 4.35342 15.9836 4.44536 16.0296C4.51891 16.0756 4.61085 16.0618 4.64303 15.9974C4.67521 15.9377 4.62924 15.8641 4.5373 15.8181C4.44536 15.7906 4.37181 15.8043 4.33963 15.8503ZM5.82904 17.4868C5.75549 17.5466 5.78307 17.6845 5.8888 17.7718C5.99453 17.8776 6.12784 17.8914 6.1876 17.8178C6.24736 17.758 6.21978 17.6201 6.12784 17.5328C6.02671 17.4271 5.8888 17.4133 5.82904 17.4868ZM5.30499 16.8111C5.23144 16.857 5.23144 16.9766 5.30499 17.0823C5.37854 17.188 5.50266 17.234 5.56242 17.188C5.63597 17.1283 5.63597 17.0087 5.56242 16.903C5.49806 16.7973 5.37854 16.7513 5.30499 16.8111Z" fill="white"/>
</svg>