<?xml version="1.0" encoding="UTF-8" standalone="no"?>
<!-- Created with Inkscape (http://www.inkscape.org/) -->

<svg
   width="27.341492mm"
   height="29.826088mm"
   viewBox="0 0 27.341492 29.826088"
   version="1.1"
   id="svg1"
   xml:space="preserve"
   xmlns:inkscape="http://www.inkscape.org/namespaces/inkscape"
   xmlns:sodipodi="http://sodipodi.sourceforge.net/DTD/sodipodi-0.dtd"
   xmlns="http://www.w3.org/2000/svg"
   xmlns:svg="http://www.w3.org/2000/svg"><sodipodi:namedview
     id="namedview1"
     pagecolor="#505050"
     bordercolor="#eeeeee"
     borderopacity="1"
     inkscape:showpageshadow="0"
     inkscape:pageopacity="0"
     inkscape:pagecheckerboard="0"
     inkscape:deskcolor="#d1d1d1"
     inkscape:document-units="mm"
     showguides="true" /><defs
     id="defs1" /><g
     inkscape:label="Camada 1"
     inkscape:groupmode="layer"
     id="layer1"
     transform="translate(-91.218722,-132.71283)"><path
       id="path1"
       style="color:#000000;fill:#ffffff;-inkscape-stroke:none"
       d="m 99.343807,132.71283 -0.04289,0.10542 c -0.286946,0.695 -0.760816,1.04559 -1.557011,1.29294 l -0.0739,0.0238 -0.02532,0.0739 -6.425964,19.9378 0.06046,0.0641 c 0.486853,0.51214 0.902744,1.0101 0.863513,2.0159 l -0.0041,0.12506 18.888765,4.29069 0.0217,-0.16175 c 0.0672,-0.51825 0.25403,-0.91136 0.5488,-1.19165 0.29476,-0.2803 0.70438,-0.45478 1.24023,-0.5116 l 0.11111,-0.0119 4.08812,-22.19347 -0.094,-0.0507 c -0.68602,-0.38273 -1.02198,-0.89595 -0.96273,-1.66811 l 0.0119,-0.14211 z m 0.160197,0.32246 16.210896,1.9451 c -0.003,0.74855 0.3568,1.32764 0.99426,1.72083 l -4.02146,21.83019 c -0.51892,0.0776 -0.9759,0.23561 -1.29708,0.54105 -0.31184,0.29653 -0.47506,0.73067 -0.56844,1.21646 l -18.408183,-4.1832 c -0.0083,-0.95121 -0.409683,-1.54122 -0.859379,-2.02365 l 6.359302,-19.7249 c 0.74732,-0.24964 1.274337,-0.65411 1.590084,-1.32188 z m 0.671276,1.52342 c -0.320078,0.75962 -0.876249,1.16298 -1.741495,1.42627 l -6.021338,18.25263 c 0.278311,0.32799 0.458969,0.76031 0.482141,1.32705 l 17.617012,4.00183 c 0.14014,-0.33496 0.30156,-0.66412 0.56069,-0.91054 0.30716,-0.29209 0.65213,-0.43069 1.07022,-0.55656 l 3.75791,-20.71088 c -0.39728,-0.26318 -0.67493,-0.59417 -0.71624,-1.0573 z m 17.30747,2.50579 -4.02973,22.21312 -0.55862,0.0605 c -0.43857,0.0465 -0.70767,0.17558 -0.89038,0.34933 -0.18272,0.17375 -0.31372,0.4176 -0.36742,0.83199 l -0.10542,0.81856 -18.917195,-4.29845 c 0.126703,0.30839 0.20153,0.66747 0.183452,1.11776 l 19.625163,4.38165 c 0.14921,-1.12598 0.84603,-1.7715 2.02778,-1.89395 l 4.10983,-22.1728 c -0.61259,-0.33551 -0.98808,-0.79606 -1.07746,-1.40767 z m -13.11444,1.53634 c 0.35375,0.006 0.73583,0.0498 1.14928,0.13643 l -5.2e-4,5.1e-4 c 0.14688,0.0313 0.29858,0.0667 0.45372,0.10853 2.17097,0.43813 4.04243,1.15819 4.27778,3.41994 l -2.17403,4.70359 c 1.11166,0.21492 0.2655,2.03369 -0.75448,2.55385 -1.56401,0.7657 -4.86008,0.54031 -6.5691,-1.51619 -0.79366,-1.05325 -0.31906,-2.76003 0.40824,-2.48822 l -0.0599,-5.19348 c 0.73359,-1.05716 1.73614,-1.75021 3.26905,-1.72496 z m 0.61701,2.79415 c -1.27349,-0.0356 -2.38581,0.76451 -2.48202,2.90008 -0.45927,0.0237 -0.58236,0.15432 -0.74879,0.23564 0.0781,0.41723 0.22804,0.70218 0.40825,0.9307 0.2029,-0.0711 0.39415,-0.14453 0.70021,-0.19379 0.10417,0.29096 0.329,0.5038 0.57568,0.70228 -0.65749,0.0111 -1.25481,0.2902 -1.83607,0.63769 l 0.0393,-0.40876 c -0.19014,-0.0652 -0.47597,-0.1274 -0.6227,-0.0858 -0.26216,1.88788 1.19786,2.55986 2.97294,2.9533 3.16825,0.7067 3.69052,-0.32619 3.92638,-1.48414 -0.13722,-0.0774 -0.28056,-0.14965 -0.4961,-0.14521 l -0.15864,0.30902 c -0.34665,-0.51918 -0.80483,-0.92364 -1.34204,-1.24747 0.31791,-0.10006 0.58083,-0.25303 0.81649,-0.43253 0.19003,0.14167 0.35734,0.30938 0.48214,0.524 0.30378,-0.11967 0.50794,-0.40515 0.68419,-0.73691 -0.1512,-0.20483 -0.28909,-0.4275 -0.53795,-0.51004 0.95645,-2.54482 -0.13147,-3.46957 -1.68413,-3.85041 -0.048,-0.0119 -0.0961,-0.0209 -0.14418,-0.032 -0.18601,-0.0377 -0.37101,-0.0605 -0.55294,-0.0656 z m 0.23255,1.1746 c 0.0771,0.004 0.15374,0.0142 0.22944,0.0305 0.79587,0.16954 1.30351,0.95175 1.1343,1.7477 -0.16928,0.79611 -0.95158,1.30452 -1.7477,1.13533 -0.79639,-0.16927 -1.30487,-0.9524 -1.13533,-1.74873 0.13281,-0.6245 0.6528,-1.0924 1.28778,-1.1591 0.077,-0.008 0.15445,-0.01 0.23151,-0.006 z m -5.1201,3.67781 c -0.114441,0.4816 -0.215227,0.96291 -0.120927,1.43713 -0.594297,0.40124 -1.153253,0.85725 -1.615922,1.46141 -0.249101,0.70741 -0.650312,1.15765 -1.200443,1.24695 -0.468049,0.076 -0.898382,0.0258 -1.429887,-0.27802 0.314189,0.47197 0.898621,0.88079 1.532723,1.03146 1.699596,0.16031 2.342154,-0.50065 3.619416,-2.51819 0.12483,0.0978 0.23171,0.21466 0.24546,0.42788 -0.5497,1.39573 -1.383914,2.39793 -2.978109,2.62826 -0.491999,-0.0163 -1.277305,-0.0656 -2.013313,-0.54053 -0.435999,-0.35706 -1.044279,-0.76548 -1.03973,-1.76941 0.07211,-0.49389 0.169955,-0.9696 0.348299,-1.38854 0.183504,-0.48998 0.521535,-0.69539 1.070736,-0.51056 0.412612,0.20781 0.822028,0.42946 1.21698,0.72037 0.709772,-0.74623 1.297309,-1.42118 2.364717,-1.94821 z m 3.42201,0.40773 v 5.2e-4 c 0.0936,-0.003 0.18826,-0.002 0.28319,0.001 0.25314,0.01 0.50928,0.0444 0.76016,0.10077 1.00351,0.22585 1.9209,0.80395 2.20813,1.59577 -1.22008,0.94667 -4.17067,0.27218 -4.93303,-1.07746 0.41462,-0.40529 1.02632,-0.59918 1.68155,-0.62063 z m 5.33042,1.41749 c 0.76037,0.9159 1.02286,1.77138 1.36736,2.74195 0.47916,-0.10495 0.94309,-0.1403 1.40457,-0.16227 0.57688,0.0547 0.80255,0.37953 0.77049,0.90176 -0.008,0.45526 -0.11227,0.93027 -0.24753,1.41076 -0.40452,0.91882 -1.12655,1.0441 -1.67018,1.1927 -0.86562,0.13413 -1.60326,-0.14073 -2.05931,-0.32608 -1.36229,-0.85941 -1.71574,-2.11359 -1.64951,-3.61219 0.0991,-0.18931 0.24414,-0.25284 0.39791,-0.29145 0.34527,2.36281 0.66386,3.22793 2.28152,3.77341 0.64031,0.12133 1.34092,-0.0141 1.82004,-0.31729 -0.60918,0.0612 -1.02299,-0.0688 -1.41955,-0.32866 -0.46605,-0.30556 -0.64935,-0.88025 -0.58911,-1.62781 -0.17662,-0.74013 -0.50108,-1.38418 -0.88057,-1.99264 0.27914,-0.39478 0.38268,-0.87565 0.47387,-1.36219 z m -7.49411,1.30328 c 2.06862,0.71041 3.59359,0.97308 5.07307,1.11776 0.2296,0.64637 0.22142,0.89347 0.10542,1.39733 -0.15349,0.92664 -1.10113,1.18982 -2.0469,1.10174 -0.82147,-0.0963 -1.60531,-0.24641 -2.32027,-0.49351 -1.00143,-0.38653 -1.69975,-0.99485 -1.5105,-1.942 0.0729,-0.46375 0.34821,-0.74168 0.69918,-1.18132 z m 0.92707,0.86713 v 5.1e-4 c -0.14561,-0.001 -0.27634,0.0999 -0.30799,0.24805 l -0.13901,0.65577 c -0.0359,0.16929 0.0714,0.33499 0.24081,0.37104 0.16942,0.0361 0.33406,-0.0714 0.37001,-0.24081 l 0.14004,-0.65578 c 0.0361,-0.16943 -0.0714,-0.33435 -0.24081,-0.37052 -0.0212,-0.004 -0.0423,-0.008 -0.0631,-0.008 z m 2.80758,0.6351 v 5.2e-4 c -0.14562,-0.001 -0.27644,0.0987 -0.30799,0.24701 l -0.13952,0.65577 c -0.0361,0.16945 0.0714,0.33499 0.24081,0.37104 0.16941,0.0361 0.33487,-0.0714 0.37103,-0.24081 l 0.13953,-0.65629 c 0.0361,-0.16942 -0.0714,-0.33385 -0.24081,-0.37001 -0.0212,-0.004 -0.0423,-0.007 -0.0631,-0.007 z" /></g></svg>
