<?xml version="1.0" encoding="UTF-8" standalone="no"?>
<!-- Created with Inkscape (http://www.inkscape.org/) -->

<svg
   width="106.0555mm"
   height="127.71428mm"
   viewBox="0 0 106.0555 127.71428"
   version="1.1"
   id="svg1"
   xml:space="preserve"
   xmlns:inkscape="http://www.inkscape.org/namespaces/inkscape"
   xmlns:sodipodi="http://sodipodi.sourceforge.net/DTD/sodipodi-0.dtd"
   xmlns="http://www.w3.org/2000/svg"
   xmlns:svg="http://www.w3.org/2000/svg"><sodipodi:namedview
     id="namedview1"
     pagecolor="#505050"
     bordercolor="#eeeeee"
     borderopacity="1"
     inkscape:showpageshadow="0"
     inkscape:pageopacity="0"
     inkscape:pagecheckerboard="0"
     inkscape:deskcolor="#d1d1d1"
     inkscape:document-units="mm" /><defs
     id="defs1" /><g
     inkscape:label="Camada 1"
     inkscape:groupmode="layer"
     id="layer1"
     transform="translate(-42.238503,-82.897016)"><g
       id="g16"
       inkscape:label="cat"
       style="display:inline"
       inkscape:export-filename="logo-svg.svg"
       inkscape:export-xdpi="96"
       inkscape:export-ydpi="96"><path
         id="path1-1-2"
         style="fill:#ffffff;stroke:none;stroke-width:0.1;stroke-dasharray:none"
         d="m 131.38867,82.904297 c -1.5617,0.219207 -2.36829,1.747309 -3.60321,2.547404 -3.66603,2.954007 -7.93682,5.040147 -11.61778,7.976935 -4.32658,3.192869 -8.41885,6.710704 -12.16377,10.571364 -7.362197,-0.88487 -14.992647,-0.0298 -21.857426,2.82617 -1.956378,0.87896 -3.816833,2.02196 -5.353515,3.5293 -8.273527,-1.23852 -16.66113,-1.29787 -25.008587,-1.45537 -2.683822,0.01 -5.37829,-0.0617 -8.053913,0.15263 -1.261597,0.27186 -1.805204,1.80843 -1.310736,2.92451 2.47094,10.55368 6.330282,21.01607 13.010757,29.66516 1.962229,2.55638 4.135073,4.95272 6.508963,7.13299 -0.369137,2.22271 -0.152981,4.51743 0.140625,6.71484 -2.152251,0.86603 -4.530928,0.64687 -6.700143,1.40744 -1.163782,0.79367 -0.704296,2.61941 0.41694,3.21756 2.189452,2.03216 4.647278,3.82034 7.412109,4.98438 -0.911117,0.36993 -2.174142,0.98236 -1.986584,2.16184 0.188863,1.32928 1.635291,1.77538 2.570569,2.48074 2.408663,1.5122 5.082914,2.57229 7.835937,3.26562 -0.159877,0.28961 0.06685,1.30224 -0.400109,0.9015 -3.738884,-2.33734 -8.44951,-3.60832 -12.769162,-2.2496 -4.782905,1.47901 -8.290408,5.9749 -9.027561,10.86624 -0.256751,1.5756 -0.494027,3.24125 -0.119574,4.80608 0.572594,1.36241 2.291174,1.82913 3.602605,1.34319 2.158923,-0.29607 4.808646,0.0487 6.061371,2.05507 1.11357,1.94007 1.637025,4.17286 2.936881,6.01615 2.483318,4.05284 6.247758,7.13891 10.310833,9.51669 3.763008,2.32889 8.167182,3.57361 12.592216,3.5689 3.197221,0.0383 6.42988,-0.37561 9.589307,0.30265 3.616602,0.54828 7.293657,0.52738 10.940637,0.40621 2.70444,-0.12718 5.41645,-0.70598 7.83191,-1.94895 5.36113,-0.0358 10.90426,0.40609 16.09796,-1.2748 3.05723,-0.83506 5.11333,-3.42409 7.01171,-5.7831 3.53409,-4.46736 6.12482,-10.02123 5.88074,-15.82346 -0.27059,-4.2394 -1.61161,-8.3281 -3.11929,-12.26966 -1.28371,-3.1609 -2.82696,-6.21061 -4.51227,-9.1753 2.79279,-0.87203 5.40816,-2.31583 7.69939,-4.11953 0.77626,-0.84371 0.12216,-2.03591 -0.57244,-2.69492 -0.12975,-0.34965 -0.93456,-0.75161 -0.59961,-1.02344 3.03156,-2.03502 5.43754,-4.93633 7.13129,-8.14886 0.41816,-1.08899 -0.56255,-2.34882 -1.72783,-2.1875 -1.83112,-0.11305 -3.70503,0.1446 -5.49721,-0.34918 2.47681,-3.46222 4.18947,-7.50332 4.83789,-11.71289 -0.008,-1.13253 -1.4099,-1.64442 -2.32521,-1.18934 -1.15381,0.25706 -2.37585,0.75311 -3.49315,0.8202 -0.42648,-2.73559 -1.70405,-5.28262 -3.39453,-7.45313 2.55037,-12.42646 1.38387,-25.3588 -1.78207,-37.559717 -0.47265,-1.654474 -0.76274,-3.399815 -1.57144,-4.930516 -0.44751,-0.533459 -1.1523,-0.874634 -1.85352,-0.8125 z"
         inkscape:label="countor-white"
         inkscape:export-filename="logo-svg.svg"
         inkscape:export-xdpi="96"
         inkscape:export-ydpi="96" /><path
         id="path1-1"
         style="fill:#000000;stroke:none;stroke-width:0.1;stroke-dasharray:none"
         d="m 131.39062,83.964844 c -0.988,0.3007 -1.5211,1.306529 -2.36354,1.857179 -2.63401,2.29321 -5.70872,3.977397 -8.61357,5.884711 -5.74218,3.940796 -11.17096,8.367606 -15.98773,13.404596 -6.605437,-0.89719 -13.42879,-0.26225 -19.748891,1.85797 -2.763692,0.96574 -5.452258,2.36479 -7.485483,4.51117 -7.365221,-1.18437 -14.846238,-1.28318 -22.287858,-1.49139 -3.390706,-0.0666 -6.782297,-0.046 -10.17268,0.0279 -1.057872,-0.0271 -1.532344,0.3883 -1.353944,1.29902 2.357356,10.24844 6.003842,20.38246 12.312529,28.88715 2.196403,2.96051 4.673286,5.71464 7.412109,8.1836 -0.508604,2.55107 -0.236621,5.17871 0.189454,7.7207 -2.227103,1.19485 -4.832222,1.09709 -7.244141,1.63477 -0.632243,0.49366 -0.07193,1.23022 0.438403,1.54607 2.659632,2.4929 5.780078,4.61487 9.327222,5.59846 -0.946867,0.97677 -2.470252,1.05113 -3.464844,1.92969 -0.286878,0.88639 0.84268,1.12373 1.343962,1.58582 2.771156,1.87125 5.938556,3.10501 9.195101,3.82238 -0.288728,1.23367 -0.421303,2.50136 -0.429688,3.76758 -3.424778,-2.52498 -7.703489,-4.38295 -12.035012,-3.69216 -4.366071,0.62162 -8.009508,4.04373 -9.35281,8.17903 -0.677899,1.95924 -0.911819,4.06827 -0.854365,6.1225 0.180323,0.92181 1.233962,1.45171 2.091627,1.09104 2.154244,-0.35977 4.597182,-0.20743 6.404467,1.13357 1.55123,1.1873 2.030935,3.14495 2.773437,4.84766 2.069014,4.55412 5.708542,8.26336 9.97219,10.81952 3.200278,2.18766 6.876466,3.76712 10.764529,4.11211 3.281526,0.39184 6.584176,-0.0387 9.872656,0.0996 1.8849,0.24288 3.750067,0.65687 5.657379,0.7299 2.910921,0.15497 5.840741,0.18968 8.748161,-0.0322 2.22595,-0.2191 4.45744,-0.76431 6.40891,-1.88713 5.49488,-0.007 11.16375,0.46344 16.46094,-1.31445 1.86028,-0.67041 3.39471,-1.98623 4.60469,-3.52198 3.88512,-4.31913 6.95731,-9.74344 7.1897,-15.66428 0.0777,-3.46221 -0.93001,-6.83143 -1.9352,-10.1083 -1.54626,-4.67009 -3.80152,-9.06718 -6.26153,-13.31481 2.9374,-0.62516 5.59854,-2.0891 8.05554,-3.78214 0.91154,-0.5487 0.46071,-0.85288 0.25328,-1.20075 -0.65532,-0.79185 -1.32229,-1.58896 -1.93773,-2.36282 3.28604,-1.75745 5.74243,-4.68191 7.65473,-7.83204 0.40985,-0.73618 0.3806,-1.23189 -0.47294,-1.27622 l -3.33413,-0.0304 c -1.31768,-0.0699 -2.7072,-0.19249 -3.8418,-0.93164 2.78983,-3.47391 4.49285,-7.41757 5.40593,-11.76337 0.12315,-0.63517 -0.17696,-0.74126 -0.64815,-0.63351 -1.66282,0.42786 -3.30235,0.97357 -5.01755,1.13516 -0.16879,-3.12766 -1.64746,-6.04326 -3.5957,-8.43945 2.55922,-11.9939 1.57226,-24.51036 -1.35843,-36.343401 -0.49194,-1.890664 -0.93234,-3.822028 -1.60251,-5.648787 -0.25112,-0.356281 -0.69733,-0.589847 -1.13672,-0.517578 z"
         sodipodi:nodetypes="ccccccccccccccccccccccccccccccccccccccccccccccccccc"
         inkscape:label="contour-black" /><path
         style="display:inline;fill:#fffeff;fill-opacity:1;stroke:none;stroke-width:0.1;stroke-dasharray:none"
         d="m 51.821254,186.12241 c -0.08875,-5.2337 1.909721,-8.92467 5.742845,-11.25959 5.520548,-2.68604 11.112228,-0.37235 16.781826,4.69182 -0.372215,-2.42165 -0.619556,-5.11925 0.52617,-8.54094 -3.870709,-0.72207 -7.134136,-1.83288 -9.98248,-3.74771 1.32411,-0.59964 2.69906,-1.10608 3.02969,-3.52711 -3.558557,-0.63963 -6.656725,-2.32118 -9.405604,-4.79324 2.191239,-0.37228 4.401322,-0.45249 6.511573,-2.08008 -0.410894,-2.75167 -1.072642,-5.31519 -0.180877,-9.04385 -11.037832,-9.65738 -16.534166,-22.32644 -19.759882,-36.22954 7.236169,-0.23566 25.956308,0.12355 32.678283,1.59874 2.150278,-2.52436 5.210738,-4.34768 11.127242,-5.81942 6.170453,-1.31462 11.8016,-1.32971 16.11532,-0.57554 4.8952,-5.22987 10.75447,-10.0741 17.45826,-14.580529 3.42153,-1.93839 6.43167,-4.031052 8.889,-6.331016 5.1237,17.523345 4.66274,31.205745 2.43009,40.991735 2.00894,2.54689 3.9434,5.1565 3.70908,9.59245 1.84826,0.23945 3.57706,-0.23788 5.30782,-0.70344 -1.02693,4.10495 -3.03539,7.53037 -5.62757,10.55169 2.02279,2.45825 4.89399,2.37127 7.73791,2.36614 -2.27184,3.56739 -5.00585,5.81431 -8.12161,6.97051 l 2.68589,3.26144 c -2.20511,1.51318 -4.4532,2.6396 -6.77867,3.06958 -0.83256,0.2397 -1.95737,0.17444 -1.47084,1.79059 5.42756,9.0457 7.76417,16.08229 8.37741,21.99869 0.0756,5.39825 -2.08413,11.16906 -8.50531,17.65011 -3.5996,2.9467 -11.2811,2.57685 -18.60935,2.49403 -2.01351,1.30588 -4.96974,2.06598 -9.27271,2.04639 -3.16421,-0.1326 -4.594991,0.33254 -10.935389,-0.89529 -6.352077,-0.1404 -12.293407,1.43688 -19.888345,-3.90093 -4.348797,-2.59435 -8.107103,-6.14004 -10.295898,-12.21439 -1.304145,-3.45274 -4.395465,-5.70206 -10.273874,-4.8313 z"
         id="path3"
         sodipodi:nodetypes="cccccccccccccccccccccccccccccccc"
         inkscape:label="body" /><path
         id="path2"
         style="fill:#d3cad2;fill-opacity:1;stroke:none;stroke-width:0.1;stroke-dasharray:none"
         d="m 62.76051,173.74082 c -1.739269,-0.0685 -3.471412,0.2825 -5.196582,1.12189 -3.83312,2.33492 -5.831552,6.02608 -5.742802,11.25978 5.612676,-0.8314 8.66464,1.19571 10.066053,4.38474 -0.304935,-3.59264 -1.16643,-6.9992 0.651123,-9.81128 1.876104,-2.90269 6.159544,-2.23364 10.953336,-1.85209 -3.60761,-3.04684 -7.184755,-4.96341 -10.731128,-5.10304 z m 24.512716,30.83119 c -0.660296,0.96041 -1.446735,1.85403 -2.536796,2.58692 2.522096,0.0573 4.982363,-0.14284 7.503418,-0.0899 -1.7467,-0.65015 -3.462235,-1.36226 -4.966622,-2.497 z"
         inkscape:label="shadow" /><path
         style="fill:#f7c0ba;fill-opacity:1;stroke:none;stroke-width:0.1;stroke-dasharray:none"
         d="m 62.628652,141.2197 c -6.908031,-4.04507 -13.437302,-21.27888 -13.204018,-26.58892 7.498014,1.5171 12.933355,4.66262 18.178137,7.95859 l -5.652407,1.22092 3.029691,3.30101 -4.974117,3.57231 6.014159,1.4018 z"
         id="path4"
         sodipodi:nodetypes="cccccccc"
         inkscape:label="back-ear-left" /><path
         id="path5"
         style="fill:#5b281d;fill-opacity:1;stroke:none;stroke-width:0.1;stroke-dasharray:none"
         d="m 49.74115,113.95273 c 9.901469,4.7065 10.619484,4.72765 12.186853,5.38107 1.567367,0.65343 8.240841,3.34605 8.240841,3.34605 1.400897,0.52334 0.945198,-0.70229 0.339514,-0.99477 -0.605685,-0.29248 -3.587826,-1.88056 -7.02076,-3.27835 -3.432936,-1.3978 -13.746448,-4.454 -13.746448,-4.454 z m 18.29139,8.56899 -5.980514,0.58756 c -0.78222,0.0865 -0.924355,0.54099 -0.452168,1.01751 l 2.792594,2.82618 -4.861202,3.64009 c -0.595279,0.46649 -0.444938,1.02404 0.700732,1.17564 l 4.996595,0.58808 -2.645317,8.5633 c -0.24522,0.74683 0.500371,0.85055 0.712618,0.2372 l 3.380156,-8.89093 c 0.176356,-0.51428 0.357369,-0.87409 -0.271819,-0.94982 l -5.810498,-0.5426 4.748031,-3.21066 c 0.435074,-0.36175 0.378038,-0.72345 0,-1.0852 l -2.599841,-2.41898 z"
         inkscape:label="countor-ear-left" /><path
         style="fill:#f6bcb6;fill-opacity:1;stroke:none;stroke-width:0.1;stroke-dasharray:none"
         d="m 129.19138,92.247258 c 0,0 1.38179,3.605199 3.25579,13.430112 1.874,9.82491 -0.9024,16.36822 -1.22092,15.82674 -2.33372,-2.18722 -4.25126,-4.32016 -3.84364,-6.14982 l 3.39144,-1.71833 -5.78806,-1.08526 1.67311,-4.97412 -4.11495,1.35658 c -1.44252,-0.73419 -2.98486,-1.3057 -2.84881,-4.61236 z"
         id="path6"
         sodipodi:nodetypes="czcccccccc"
         inkscape:label="back-ear-right" /><path
         id="path7"
         style="fill:#48190e;fill-opacity:1;stroke:none;stroke-width:0.1;stroke-dasharray:none"
         d="m 128.91151,91.679159 c -0.13667,9.61e-4 -0.32906,0.109797 -0.51676,0.348299 -5.39075,5.856937 -10.0565,11.691562 -13.65292,18.565272 -0.69305,1.20242 0.77078,1.54225 1.07126,0.87178 3.66077,-6.76661 8.55739,-12.750652 13.04571,-18.993152 0.35475,-0.495644 0.2805,-0.793802 0.0527,-0.792199 z M 127.154,107.01517 c -0.12755,-0.003 -0.32336,0.0385 -0.61909,0.14315 l -5.31492,2.0283 c -0.42914,0.14627 -0.34486,0.60946 0.23616,0.43666 l 4.23075,-1.13119 -1.526,3.92275 c -0.19051,0.50102 -0.0319,0.78805 0.4408,0.88212 l 4.49946,0.46354 -4.46587,1.74098 c -0.42992,0.18531 -0.70258,0.41206 -0.2372,0.83612 l 5.77123,5.38107 c 0.76017,0.67375 1.39655,-0.30587 0.77979,-0.82527 l -5.20588,-4.66845 5.1325,-2.29495 c 0.51154,-0.23862 0.49571,-0.49693 -0.1018,-0.59945 l -5.23379,-0.92656 1.79731,-4.95163 c 0.0468,-0.2145 0.0971,-0.43147 -0.18345,-0.43719 z"
         inkscape:label="countor-ear-right" /><path
         style="fill:#5f2a1e;fill-opacity:1;stroke:none;stroke-width:0.1;stroke-dasharray:none"
         d="m 79.853777,146.63116 c -1.097564,0.34963 -1.969962,-0.868 -0.413596,-1.46963 4.829023,-1.71381 9.263253,-1.29483 12.926042,0.97335 1.058172,0.77643 0.568653,1.59503 -0.541258,1.23165 -4.070478,-1.48993 -7.482667,-2.35091 -11.971188,-0.73537 z"
         id="path8"
         sodipodi:nodetypes="ccccc"
         inkscape:label="eye-left" /><path
         style="fill:#53291c;fill-opacity:1;stroke:none;stroke-width:0.1;stroke-dasharray:none"
         d="m 112.39188,143.84684 c -0.92348,0.71494 -1.74986,-0.0274 -1.0138,-1.11409 2.68863,-3.3663 6.43085,-4.70712 11.55497,-4.71414 1.66802,0.0442 1.25508,1.48401 0.10384,1.52318 -4.77038,-0.0147 -7.31106,1.53494 -10.64501,4.30505 z"
         id="path9"
         sodipodi:nodetypes="ccccc"
         inkscape:label="eye-right" /><path
         style="fill:#fed4d0;fill-opacity:1;stroke:none;stroke-width:0.1;stroke-dasharray:none"
         d="m 76.895324,157.72472 c 0.155943,-1.7361 2.213127,-3.53479 3.866245,-4.16017 1.653118,-0.62538 4.176004,-0.59414 5.923722,-0.20348 1.747718,0.39066 3.246627,0.46876 3.707979,2.69054 0.461352,2.22178 -3.253082,5.00551 -5.516747,5.76546 -2.263665,0.75995 -3.919869,0.75608 -5.403702,-0.0678 -1.483833,-0.82388 -2.73344,-2.28845 -2.577497,-4.02455 z"
         id="path10"
         sodipodi:nodetypes="zzzzzzz"
         inkscape:label="eff-left" /><path
         style="fill:#fdd3cf;fill-opacity:1;stroke:none;stroke-width:0.0965739;stroke-dasharray:none"
         d="m 128.11843,147.08635 c -0.84559,-1.4362 -3.4229,-2.18385 -5.16068,-2.07751 -1.73777,0.10634 -3.98925,1.11861 -5.39895,2.13808 -1.4097,1.01946 -2.72315,1.67221 -2.23414,3.76831 0.48901,2.09613 4.95399,3.04595 7.29441,2.81722 2.34042,-0.22875 3.8252,-0.87893 4.822,-2.16891 0.99679,-1.28998 1.52297,-3.04099 0.67736,-4.47719 z"
         id="path11"
         sodipodi:nodetypes="zzzzzzz"
         inkscape:label="eff-right" /><path
         style="fill:#000000;stroke:none;stroke-width:0.1;stroke-dasharray:none"
         d="m 97.06278,155.68504 c -0.46797,-0.47353 0.257953,-0.95848 0.593659,-0.57409 0.734076,0.816 1.390074,0.94845 2.523551,1.01554 1.13349,0.0671 3.20815,-1.3388 2.72266,-3.96606 -0.0917,-0.58762 0.66757,-0.70721 0.81491,-0.1526 0.5056,1.79371 1.56254,2.76322 2.89425,2.78808 1.33171,0.0249 2.22881,-0.3939 2.99813,-1.80704 0.31617,-0.63667 1.0837,-0.50239 0.90021,0.28523 -0.30611,0.75872 -0.85902,1.30122 -1.54347,1.80255 -0.68445,0.50133 -1.87173,0.78065 -3.09459,0.54515 -1.22286,-0.2355 -2.23051,-1.49538 -2.23051,-1.49538 0,0 -0.32407,0.9678 -0.82888,1.53748 -0.50481,0.56968 -1.47965,1.38779 -2.961386,1.29522 -1.481734,-0.0926 -2.455496,-0.93662 -2.788534,-1.27408 z"
         id="path12"
         sodipodi:nodetypes="cczcczcczzczzc"
         inkscape:label="mouth" /><path
         style="fill:#3c1913;fill-opacity:1;stroke:none;stroke-width:0.1;stroke-dasharray:none"
         d="m 103.05466,152.23059 -1.83138,-1.37919 c -0.31834,-0.21564 -0.24229,-0.4144 0,-0.45219 l 3.57797,-0.47198 c 0.33849,-0.0621 0.42077,0.11778 0.21196,0.35328 l -1.40644,1.89561 c -0.14976,0.16899 -0.32711,0.21654 -0.55211,0.0545 z"
         id="path13"
         sodipodi:nodetypes="ccccccc"
         inkscape:label="nose" /></g></g></svg>
