<svg width="308" height="371" viewBox="0 0 308 371" fill="none" xmlns="http://www.w3.org/2000/svg">
  <g clip-path="url(#clip0_518_397)">
  <path d="M258.291 0.0210885C253.766 0.656186 251.429 5.08348 247.851 7.40155C237.23 15.9601 224.856 22.0041 214.191 30.5127C201.656 39.7633 189.8 49.9554 178.95 61.1407C157.62 58.577 135.513 61.0543 115.624 69.3288C109.955 71.8754 104.565 75.1869 100.113 79.5541C76.1425 75.9658 51.8415 75.7938 27.6568 75.3375C19.8811 75.3665 12.0746 75.1587 4.32261 75.7797C0.66744 76.5673 -0.907532 81.0192 0.525067 84.2527C7.684 114.829 18.8655 145.142 38.2205 170.2C43.9056 177.607 50.2009 184.549 57.0786 190.866C56.0091 197.306 56.6354 203.954 57.4861 210.321C51.2504 212.83 44.3588 212.195 38.0741 214.399C34.7023 216.698 36.0335 221.988 39.282 223.721C45.6254 229.608 52.7464 234.789 60.7568 238.162C58.117 239.233 54.4577 241.008 55.0011 244.425C55.5483 248.276 59.739 249.569 62.4487 251.612C69.4272 255.994 77.1752 259.065 85.1514 261.074C84.6882 261.913 85.3451 264.847 83.9922 263.686C73.1597 256.914 59.5118 253.231 46.9967 257.168C33.1394 261.453 22.9773 274.479 20.8416 288.65C20.0977 293.215 19.4103 298.041 20.4952 302.575C22.1541 306.522 27.1333 307.874 30.9328 306.466C37.1878 305.608 44.8647 306.607 48.4941 312.42C51.7204 318.041 53.237 324.51 57.003 329.851C64.1978 341.593 75.1044 350.534 86.8761 357.423C97.7785 364.17 110.538 367.776 123.359 367.763C132.622 367.874 141.988 366.675 151.142 368.64C161.62 370.228 172.273 370.168 182.839 369.817C190.675 369.448 198.532 367.771 205.53 364.17C221.063 364.066 237.123 365.346 252.17 360.476C261.028 358.057 266.985 350.556 272.485 343.721C282.724 330.778 290.23 314.687 289.523 297.877C288.739 285.594 284.854 273.748 280.486 262.329C276.766 253.171 272.295 244.335 267.412 235.745C275.504 233.219 283.081 229.036 289.719 223.81C291.968 221.366 290.073 217.912 288.061 216.002C287.685 214.989 285.353 213.825 286.324 213.037C295.107 207.141 302.078 198.735 306.985 189.428C308.196 186.273 305.355 182.623 301.979 183.09C296.674 182.762 291.245 183.509 286.052 182.078C293.228 172.047 298.19 160.339 300.069 148.143C300.046 144.862 295.984 143.379 293.332 144.697C289.989 145.442 286.449 146.879 283.211 147.074C281.976 139.148 278.274 131.769 273.377 125.48C280.766 89.4774 277.386 52.0092 268.214 16.6601C266.844 11.8666 266.004 6.80993 263.661 2.37511C262.364 0.829541 260.322 -0.158929 258.291 0.0210885Z" fill="#120621"/>
  <path d="M258.297 3.09379C255.434 3.96499 253.89 6.87913 251.449 8.4745C243.817 15.1185 234.909 19.998 226.493 25.524C209.857 36.9415 194.128 49.7671 180.173 64.3605C161.035 61.7611 141.266 63.6007 122.955 69.7435C114.948 72.5415 107.158 76.5949 101.268 82.8135C79.9288 79.3821 58.2544 79.0958 36.6941 78.4926C26.8704 78.2996 17.0441 78.3593 7.22131 78.5734C4.15639 78.4949 2.78172 79.6984 3.29858 82.337C10.1284 112.029 20.6932 141.39 38.9711 166.03C45.3346 174.608 52.5108 182.587 60.4459 189.74C58.9723 197.131 59.7603 204.744 60.9947 212.109C54.5423 215.571 46.9946 215.288 40.0066 216.845C38.1749 218.276 39.7982 220.41 41.2768 221.325C48.9824 228.547 58.0231 234.695 68.3001 237.545C65.5568 240.375 61.1432 240.59 58.2616 243.136C57.4304 245.704 60.7031 246.392 62.1554 247.73C70.1841 253.152 79.3609 256.726 88.7959 258.805C87.9594 262.379 87.5753 266.052 87.551 269.72C77.6286 262.405 65.2321 257.022 52.6825 259.023C40.0329 260.824 29.477 270.739 25.5851 282.72C23.621 288.396 22.9433 294.507 23.1098 300.458C23.6322 303.129 26.6849 304.664 29.1697 303.619C35.4111 302.577 42.4889 303.018 47.7251 306.904C52.2194 310.344 53.6092 316.015 55.7605 320.949C61.7549 334.143 72.2995 344.89 84.6524 352.295C93.9244 358.634 104.575 363.21 115.84 364.209C125.347 365.344 134.916 364.097 144.444 364.498C149.905 365.201 155.308 366.401 160.834 366.613C169.268 367.062 177.756 367.162 186.18 366.519C192.629 365.884 199.094 364.305 204.748 361.052C220.668 361.031 237.092 362.394 252.44 357.243C257.829 355.301 262.275 351.489 265.781 347.039C277.037 334.526 285.938 318.81 286.611 301.656C286.836 291.625 283.917 281.864 281.004 272.37C276.524 258.839 269.99 246.1 262.863 233.793C271.373 231.982 279.083 227.741 286.202 222.835C288.843 221.246 287.537 220.364 286.936 219.357C285.037 217.062 283.105 214.753 281.322 212.511C290.842 207.419 297.959 198.946 303.499 189.82C304.687 187.687 304.602 186.25 302.129 186.122L292.469 186.034C288.652 185.831 284.626 185.476 281.339 183.335C289.422 173.27 294.356 161.844 297.001 149.253C297.358 147.413 296.488 147.106 295.123 147.418C290.306 148.657 285.555 150.239 280.586 150.707C280.097 141.645 275.813 133.198 270.168 126.255C277.583 91.5061 274.724 55.2427 266.233 20.9594C264.807 15.4817 263.532 9.88608 261.59 4.5935C260.862 3.56126 259.57 2.8844 258.297 3.09379Z" fill="#230C40"/>
  <path d="M27.7639 299.07C27.5068 283.906 33.2968 273.213 44.4024 266.448C60.3968 258.666 76.5973 265.369 93.0235 280.041C91.9451 273.025 91.2285 265.21 94.548 255.296C83.3336 253.204 73.8786 249.986 65.6262 244.438C69.4625 242.701 73.4461 241.233 74.404 234.219C64.094 232.366 55.1178 227.494 47.1536 220.332C53.5022 219.253 59.9053 219.021 66.0193 214.305C64.8288 206.333 62.9116 198.906 65.4952 188.103C33.5158 160.123 17.5916 123.418 8.24585 83.1369C29.2109 82.4541 83.4478 83.4949 102.923 87.7689C109.153 80.4552 118.02 75.1725 135.162 70.9085C153.039 67.0998 169.354 67.056 181.852 69.2411C196.034 54.0888 213.01 40.0538 232.433 26.9976C242.346 21.3816 251.067 15.3186 258.186 8.65503C273.031 59.4246 271.695 99.0659 265.227 127.418C271.047 134.797 276.652 142.358 275.973 155.21C281.328 155.904 286.337 154.521 291.351 153.172C288.376 165.065 282.557 174.99 275.047 183.743C280.907 190.865 289.226 190.613 297.465 190.598C290.883 200.934 282.962 207.444 273.935 210.794L281.717 220.243C275.328 224.627 268.815 227.89 262.077 229.136C259.665 229.831 256.406 229.642 257.816 234.324C273.541 260.532 280.31 280.918 282.087 298.06C282.306 313.7 276.049 330.419 257.445 349.197C247.016 357.734 224.761 356.662 203.529 356.422C197.696 360.206 189.131 362.408 176.664 362.351C167.496 361.967 163.351 363.315 144.981 359.757C126.578 359.351 109.364 363.921 87.3597 348.456C74.7602 340.939 63.8714 330.666 57.5299 313.067C53.7514 303.064 44.7951 296.547 27.7639 299.07Z" fill="#120621"/>
  <path d="M59.457 263.197C54.4179 262.999 49.3994 264.016 44.4012 266.447C33.2957 273.212 27.5057 283.907 27.7628 299.07C44.0242 296.661 52.8665 302.534 56.9267 311.774C56.0433 301.365 53.5473 291.495 58.8132 283.348C64.2488 274.938 76.659 276.876 90.5478 277.982C80.0956 269.154 69.7317 263.602 59.457 263.197ZM130.477 352.523C128.563 355.305 126.285 357.894 123.127 360.018C130.434 360.184 137.562 359.604 144.866 359.757C139.805 357.874 134.835 355.81 130.477 352.523Z" fill="#1C0B32"/>
  <path d="M59.0757 168.975C39.0614 157.256 20.1444 107.325 20.8203 91.9407C42.544 96.3361 58.2915 105.449 73.487 114.999L57.1105 118.536L65.8883 128.1L51.477 138.45L68.9016 142.511L59.0757 168.975Z" fill="#1C0B32"/>
  <path d="M21.7371 89.9766C50.4241 103.612 52.5044 103.674 57.0454 105.567C61.5865 107.46 80.9213 115.261 80.9213 115.261C84.98 116.777 83.6597 113.227 81.9049 112.379C80.1501 111.532 71.5101 106.931 61.564 102.881C51.6179 98.8312 21.7371 89.9766 21.7371 89.9766ZM74.7318 114.803L57.4048 116.505C55.1385 116.756 54.7267 118.073 56.0947 119.453L64.1856 127.642L50.1015 138.188C48.3768 139.539 48.8124 141.155 52.1317 141.594L66.608 143.298L58.9439 168.108C58.2334 170.272 60.3936 170.572 61.0085 168.795L70.8017 143.036C71.3126 141.546 71.8371 140.503 70.0142 140.284L53.1797 138.712L66.9359 129.41C68.1965 128.362 68.0312 127.314 66.9359 126.266L59.4035 119.257L74.7318 114.803Z" fill="#230C40"/>
  <path d="M251.924 27.0898C251.924 27.0898 255.928 37.535 261.357 66.0003C266.786 94.4655 258.743 113.423 257.82 111.854C251.058 105.517 245.503 99.3377 246.684 94.0367L256.51 89.0583L239.74 85.914L244.588 71.5027L232.665 75.4331C228.486 73.306 224.018 71.6502 224.412 62.0699L251.924 27.0898Z" fill="#1C0B32"/>
  <path d="M251.114 25.4441C250.718 25.4469 250.16 25.7622 249.616 26.4532C233.998 43.4222 220.48 60.3266 210.06 80.2415C208.052 83.7252 212.294 84.7098 213.164 82.7673C223.77 63.1627 237.957 45.8254 250.961 27.7393C251.989 26.3033 251.774 25.4395 251.114 25.4441ZM246.022 69.8764C245.652 69.8677 245.085 69.9879 244.228 70.2911L228.829 76.1676C227.586 76.5914 227.83 77.9334 229.513 77.4328L241.771 74.1554L237.35 85.5206C236.798 86.9722 237.257 87.8038 238.627 88.0763L251.663 89.4193L238.724 94.4634C237.479 95.0003 236.689 95.6572 238.037 96.8858L254.758 112.476C256.96 114.428 258.804 111.59 257.017 110.085L241.934 96.5595L256.804 89.9104C258.286 89.2191 258.241 88.4707 256.509 88.1737L241.346 85.4892L246.553 71.1431C246.689 70.5216 246.834 69.893 246.022 69.8764Z" fill="#230C40"/>
  <path d="M108.981 184.654C105.801 185.667 103.274 182.139 107.783 180.396C121.774 175.431 134.621 176.644 145.233 183.216C148.299 185.465 146.88 187.837 143.665 186.784C131.871 182.468 121.985 179.973 108.981 184.654Z" fill="#230C40"/>
  <path d="M203.252 176.587C200.577 178.658 198.183 176.507 200.315 173.359C208.105 163.606 218.947 159.721 233.793 159.701C238.625 159.829 237.429 164 234.094 164.114C220.273 164.071 212.912 168.561 203.252 176.587Z" fill="#230C40"/>
  <path d="M100.409 216.794C100.861 211.765 106.821 206.553 111.611 204.741C116.4 202.929 123.71 203.02 128.773 204.152C133.837 205.284 138.18 205.51 139.516 211.947C140.853 218.384 130.091 226.449 123.533 228.651C116.974 230.853 112.176 230.842 107.877 228.455C103.578 226.068 99.9575 221.824 100.409 216.794Z" fill="#230C40"/>
  <path d="M248.816 185.973C246.366 181.812 238.899 179.646 233.864 179.954C228.829 180.262 222.306 183.195 218.222 186.148C214.137 189.102 210.332 190.993 211.749 197.066C213.166 203.139 226.102 205.891 232.883 205.228C239.663 204.565 243.965 202.682 246.853 198.944C249.741 195.207 251.265 190.134 248.816 185.973Z" fill="#230C40"/>
  <path d="M158.839 210.885C157.484 209.513 159.587 208.108 160.559 209.222C162.686 211.586 164.587 211.97 167.871 212.164C171.155 212.359 177.166 208.285 175.759 200.674C175.493 198.971 177.693 198.625 178.12 200.232C179.585 205.428 182.647 208.237 186.505 208.309C190.364 208.381 192.963 207.168 195.192 203.074C196.108 201.229 198.331 201.618 197.8 203.9C196.913 206.098 195.311 207.67 193.328 209.123C191.345 210.575 187.905 211.384 184.362 210.702C180.819 210.02 177.9 206.37 177.9 206.37C177.9 206.37 176.961 209.174 175.498 210.824C174.036 212.475 171.211 214.845 166.918 214.577C162.626 214.308 159.804 211.863 158.839 210.885Z" fill="#230C40"/>
  <path d="M176.2 200.877L170.894 196.881C169.972 196.256 170.192 195.68 170.894 195.571L181.26 194.203C182.241 194.023 182.479 194.545 181.874 195.227L177.799 200.719C177.366 201.209 176.852 201.346 176.2 200.877Z" fill="#230C40"/>
  </g>
  <defs>
  <clipPath id="clip0_518_397">
  <rect width="307.27" height="370.021" fill="white"/>
  </clipPath>
  </defs>
  </svg>
  