<svg width="44" height="37" viewBox="0 0 44 37" fill="none" xmlns="http://www.w3.org/2000/svg">
  <path d="M21.7666 0.315258C16.4238 0.399541 14.4111 3.16291 14.4111 3.16291L14.4262 6.13752C14.4262 6.13752 17.8302 3.39925 21.7778 3.36213C25.7254 3.32434 29.1294 6.17853 29.1294 6.17853L29.0916 3.17655C29.0916 3.17655 27.1094 0.230823 21.7666 0.315258ZM33.5303 3.95C32.2537 5.60404 31.5578 7.45188 31.5186 9.51837C33.8727 9.39969 35.1798 10.5089 35.8272 12.3914C37.1273 13.7148 38.2051 14.3144 39.2744 14.8875C40.3507 14.2199 41.3921 13.439 42.2354 12.0145C39.5639 9.16628 36.9441 6.28416 33.5303 3.95ZM10.2666 4.05923C6.85275 6.39339 4.231 9.27551 1.55958 12.1237C2.40289 13.5483 3.44429 14.3292 4.52053 14.9967C5.5898 14.4237 6.66763 13.822 7.96779 12.4987C8.6151 10.6161 9.92419 9.50892 12.2783 9.6276C12.239 7.5611 11.5432 5.71327 10.2666 4.05923ZM14.2373 7.29359L14.2676 9.82486L21.7675 16.1374L29.7363 9.82486L29.7061 7.29359C24.548 9.69533 19.2191 9.52064 14.2373 7.29359ZM12.2881 10.7975C11.8832 10.7976 11.4823 10.8774 11.1083 11.0324C10.7343 11.1875 10.3944 11.4147 10.1082 11.701C9.82201 11.9874 9.59504 12.3274 9.44024 12.7015C9.28544 13.0756 9.20585 13.4766 9.20604 13.8815C9.20618 14.6989 9.53094 15.4827 10.1089 16.0607C10.6869 16.6386 11.4707 16.9634 12.2881 16.9635C13.1055 16.9634 13.8893 16.6386 14.4673 16.0607C15.0452 15.4827 15.37 14.6989 15.3701 13.8815C15.3703 13.4766 15.2907 13.0757 15.1359 12.7016C14.9812 12.3274 14.7541 11.9875 14.4679 11.7011C14.1817 11.4147 13.8419 11.1875 13.4679 11.0325C13.0939 10.8774 12.693 10.7976 12.2881 10.7975ZM31.3447 10.858C30.5274 10.8581 29.7435 11.1829 29.1656 11.7608C28.5876 12.3388 28.2628 13.1226 28.2627 13.94C28.2628 14.7574 28.5876 15.5412 29.1655 16.1192C29.7435 16.6972 30.5274 17.0219 31.3447 17.022C32.1621 17.0219 32.946 16.6972 33.5239 16.1192C34.1019 15.5412 34.4266 14.7574 34.4268 13.94C34.4266 13.1226 34.1019 12.3388 33.5239 11.7608C32.946 11.1829 32.1621 10.8581 31.3447 10.858ZM37.0283 14.5123C35.9228 14.674 35.5167 15.4354 35.2783 16.3404L39.1221 20.0435L43.6689 15.9654C43.4206 15.0558 42.8329 14.8624 42.2158 14.731L39.9971 16.6373C38.917 16.0797 37.9909 15.2656 37.0283 14.5123ZM6.76855 14.6215C5.80597 15.3748 4.87986 16.1889 3.79981 16.7465L1.58107 14.8403C0.964005 14.9714 0.376358 15.1649 0.12793 16.0746L4.67483 20.1528L8.51854 16.4496C8.28006 15.5446 7.87409 14.7833 6.76855 14.6215ZM26.8311 14.7621L21.6436 19.1371L16.8936 14.7777C15.8283 16.2954 14.2713 17.9705 13.0498 18.6527C14.2132 21.2875 14.6906 23.9326 13.8623 28.7934L21.5811 32.3871L29.6436 28.7621C28.071 25.2797 28.6125 21.9321 30.9561 18.6996C29.2991 17.7776 27.8517 16.5598 26.8311 14.7621ZM14.2686 30.3871L13.8467 32.7621L21.5655 36.684L29.6123 32.809L29.2061 30.3871L21.5342 33.9965L14.2686 30.3871Z" fill="white"/>
</svg>  