<?xml version="1.0" encoding="UTF-8" standalone="no"?>
<!-- Created with Inkscape (http://www.inkscape.org/) -->

<svg
   width="27.29994mm"
   height="25.895676mm"
   viewBox="0 0 27.29994 25.895676"
   version="1.1"
   id="svg1"
   xml:space="preserve"
   inkscape:version="1.3 (0e150ed6c4, 2023-07-21)"
   sodipodi:docname="icons-starrail.svg"
   xmlns:inkscape="http://www.inkscape.org/namespaces/inkscape"
   xmlns:sodipodi="http://sodipodi.sourceforge.net/DTD/sodipodi-0.dtd"
   xmlns="http://www.w3.org/2000/svg"
   xmlns:svg="http://www.w3.org/2000/svg"><sodipodi:namedview
     id="namedview1"
     pagecolor="#505050"
     bordercolor="#eeeeee"
     borderopacity="1"
     inkscape:showpageshadow="0"
     inkscape:pageopacity="0"
     inkscape:pagecheckerboard="0"
     inkscape:deskcolor="#d1d1d1"
     inkscape:document-units="mm"
     showguides="true"
     inkscape:zoom="2"
     inkscape:cx="488.25"
     inkscape:cy="529.25"
     inkscape:window-width="1920"
     inkscape:window-height="1017"
     inkscape:window-x="-8"
     inkscape:window-y="-8"
     inkscape:window-maximized="1"
     inkscape:current-layer="layer1"
     showgrid="false" /><defs
     id="defs1" /><g
     inkscape:label="Camada 1"
     inkscape:groupmode="layer"
     id="layer1"
     transform="translate(-83.140734,-144.496)"><path
       id="path2"
       style="display:inline;fill:#ffffff;stroke-width:0.264583"
       d="m 100.42902,144.49609 c -0.13992,-0.003 -0.28346,0.0624 -0.433055,0.23099 -3.38388,4.56719 -6.42342,6.98163 -9.46299,9.39685 0.83111,1.32918 0.48094,1.9365 -0.14366,2.4908 -0.70808,0.5034 -1.82292,0.52083 -2.982764,-0.30282 l -3.866431,2.29288 c -0.444011,0.27249 -0.530045,0.51223 -0.19637,0.87282 l 8.350915,8.35091 c 0.35662,0.37759 0.56341,0.35901 1.08313,0.0698 l 4.5558,-2.65772 c -0.30516,-0.8723 -0.10677,-1.54755 0.62838,-2.22415 0.87109,-0.62053 1.56584,-0.72505 2.621035,-0.3142 3.3054,-3.22899 6.43646,-6.39635 9.43405,-10.02109 0.25616,-0.25907 0.34149,-0.51814 0,-0.77721 l -9.17773,-7.22643 c -0.1341,-0.10648 -0.2704,-0.17825 -0.41031,-0.18139 z m -0.33383,1.10743 0.66146,0.61185 c -3.677075,5.09704 -3.634035,8.75272 -2.215895,11.87317 -1.69781,0.62849 -3.22965,1.00802 -4.66328,1.24024 l -2.23242,-2.64584 c 0.15513,-0.63234 0.35364,-1.24159 -0.13229,-2.21588 2.82601,-2.05057 5.66897,-4.54048 8.582425,-8.86354 z m -11.765181,1.32756 c -0.25371,1.39591 -0.518143,2.78013 -1.719792,3.14193 1.447639,0.25887 1.798939,1.42507 1.984378,2.72852 0.15538,-1.19011 0.51544,-2.27787 1.71979,-2.94349 -1.14099,-0.3163 -1.52357,-1.67542 -1.984376,-2.92696 z m 13.799161,0.27647 1.19063,0.90951 c -1.80359,2.08248 -2.81249,4.36431 -1.67019,8.36745 l -1.5875,0.77721 c -1.537525,-2.76824 -1.907745,-5.84221 2.06706,-10.05417 z m 2.41432,1.81901 3.80339,3.09232 c -1.34991,1.85403 -3.28182,2.81481 -5.19865,3.57859 -1.32215,-2.89578 -0.21282,-4.91222 1.39526,-6.67091 z m 4.50991,5.43308 c -0.0632,0.007 -0.12523,0.0526 -0.19172,0.12712 -2.43016,3.34827 -5.51092,5.9737 -8.13294,8.7025 -0.912335,-0.22927 -1.762415,-0.12759 -2.405025,0.41961 -0.50939,0.48055 -0.68931,1.19873 -0.50333,1.95802 l -5.24674,3.02957 c -0.23467,0.15023 -0.48037,0.19041 -0.67797,-0.0222 l -6.890528,-6.60269 c -0.322416,-0.24905 -0.793226,0.15484 -0.543636,0.4501 l 7.456384,7.33547 c 0.24105,0.24589 0.45045,0.22403 0.69402,0.007 l 6.12779,-3.89641 c 0.1125,-0.0697 0.14159,-0.17024 0.0827,-0.3023 -0.14706,-0.45149 -0.18821,-0.89985 0.23771,-1.30587 0.52029,-0.38972 0.979225,-0.29823 1.544615,0.0171 0.13267,0.0854 0.21412,0.0693 0.30902,-0.0258 3.24605,-2.70146 6.45633,-5.44585 9.48427,-8.40904 0.0641,-0.0583 0.049,-0.11125 5.2e-4,-0.16175 l -1.14618,-1.22105 c -0.0714,-0.0761 -0.13087,-0.11134 -0.19895,-0.0987 z m -5.93597,1.50382 c 0.19681,0.52725 0.49553,1.29174 1.0788,1.81069 -0.21874,0.38372 -0.58092,0.82899 -0.90951,0.92604 -0.64376,-0.45044 -1.28298,-1.90875 -1.33343,-2.09038 -0.007,-0.10745 1.01776,-0.79779 1.16414,-0.64635 z m -15.785293,1.13238 c 0.775752,0.79247 2.135678,0.92211 3.296958,0.42116 l 1.89446,2.23294 c -3.27179,1.27809 -5.894497,1.21198 -8.173148,-0.92346 z m 12.663828,0.61236 c 0.357445,0.92541 1.090505,1.66773 1.909965,2.43913 -0.14417,0.32565 -0.59607,0.70981 -0.85163,0.8847 -0.9596,-0.6279 -1.617435,-1.55759 -2.182815,-2.57968 0.24539,-0.41279 0.6368,-0.63974 1.12448,-0.74415 z m -6.05751,2.06551 2.7714,2.96985 c -0.1835,0.2293 -0.35587,0.48252 -0.40927,0.99373 l -3.00499,-3.48454 c 0.11731,-0.31754 0.34956,-0.44744 0.64286,-0.47904 z m 11.878345,4.74752 c -0.25371,1.3959 -0.51814,2.78012 -1.71979,3.14192 1.44764,0.25887 1.79894,1.42507 1.98438,2.72852 0.15538,-1.19011 0.51544,-2.27787 1.71979,-2.94349 -1.14099,-0.3163 -1.52357,-1.67542 -1.98438,-2.92695 z"
       sodipodi:nodetypes="cccccccccccccccsccccccccccccccccccsccsccccccccccccccccccsccccccccccccccccccccccccccc"
       inkscape:export-filename="warp.svg"
       inkscape:export-xdpi="96"
       inkscape:export-ydpi="96" /></g></svg>
